<?xml version="1.0" encoding="utf-8"?>
<!DOCTYPE svg PUBLIC "-//W3C//DTD SVG 20010904//EN" "http://www.w3.org/TR/2001/REC-SVG-20010904/DTD/svg10.dtd">
<svg version="1.0" xmlns="http://www.w3.org/2000/svg" width="200pt" height="200pt" viewBox="0 0 200 200" style="" preserveAspectRatio="xMidYMid meet">
<g fill="#040204FE" stroke="#040204FE">
<path d="M 124.572 16.579 C 126.168 30.090 128.856 38.298 133.488 43.803 C 137.033 48.017 139.232 59.625 137.393 64.418 C 137.059 65.288 133.909 67.373 130.393 69.051 C 126.877 70.729 124.000 72.520 124.000 73.030 C 124.000 74.140 128.764 72.230 131.309 70.099 C 134.306 67.588 136.495 69.832 136.528 75.449 C 136.556 80.058 136.399 80.304 130.528 84.896 C 127.213 87.490 122.250 91.027 119.500 92.758 C 115.286 95.409 112.709 98.662 111.680 102.632 C 111.581 103.013 112.736 103.379 114.247 103.446 C 115.758 103.512 117.774 104.346 118.728 105.299 C 120.201 106.772 120.266 107.344 119.161 109.114 C 118.446 110.258 118.102 111.435 118.396 111.729 C 119.395 112.728 116.976 115.928 115.616 115.406 C 114.808 115.096 114.033 115.765 113.693 117.066 C 113.108 119.302 110.664 119.445 105.500 117.548 C 104.400 117.144 104.850 117.700 106.500 118.783 C 108.150 119.867 110.668 121.025 112.095 121.357 C 114.357 121.883 115.084 121.350 117.772 117.203 C 120.814 112.508 121.460 110.130 121.156 104.762 C 121.045 102.816 120.494 102.066 119.250 102.170 C 111.178 102.847 113.569 98.648 126.000 90.318 C 129.025 88.290 131.725 86.351 132.000 86.008 C 132.842 84.957 137.400 82.000 138.177 82.000 C 138.580 82.000 139.212 83.611 139.581 85.581 C 142.212 99.606 119.730 132.175 107.579 131.941 C 105.460 131.900 100.935 129.483 93.070 124.191 C 86.783 119.961 81.458 115.938 81.237 115.250 C 80.598 113.269 94.877 113.517 95.638 115.500 C 95.992 116.422 97.510 117.000 99.576 117.000 C 102.063 117.000 102.796 116.632 102.394 115.585 C 102.073 114.749 103.109 113.240 104.926 111.897 C 106.617 110.647 108.000 109.165 108.000 108.604 C 108.000 108.043 106.070 109.477 103.712 111.792 C 101.354 114.106 99.110 116.000 98.726 116.000 C 97.730 116.000 91.071 108.596 91.595 108.072 C 91.834 107.832 93.591 109.150 95.500 111.000 C 97.409 112.850 99.137 114.169 99.342 113.932 C 99.546 113.694 96.638 110.800 92.880 107.500 C 89.122 104.200 86.936 102.513 88.024 103.750 C 91.064 107.212 90.365 107.724 87.000 104.500 C 84.655 102.253 84.000 101.994 84.000 103.313 C 84.000 104.241 84.338 105.001 84.750 105.002 C 85.840 105.006 92.502 110.842 91.958 111.318 C 91.706 111.539 89.081 111.993 86.124 112.328 L 80.749 112.936 81.317 109.437 C 81.629 107.513 82.520 104.664 83.297 103.106 C 84.625 100.444 84.518 100.008 81.518 95.874 C 79.762 93.454 78.062 90.805 77.741 89.987 C 77.253 88.742 77.145 88.763 77.079 90.112 C 77.036 90.999 78.382 93.464 80.071 95.589 C 81.760 97.714 82.772 99.563 82.321 99.697 C 81.869 99.831 80.375 98.391 79.000 96.498 C 77.625 94.604 76.153 93.043 75.730 93.028 C 74.527 92.985 78.927 101.035 80.419 101.607 C 81.502 102.023 81.447 103.075 80.117 107.309 C 78.009 114.023 77.336 114.986 74.691 115.070 C 73.436 115.110 74.473 115.747 77.122 116.562 C 79.663 117.345 82.326 118.688 83.039 119.547 C 85.029 121.945 81.498 124.833 75.586 125.643 C 71.505 126.203 70.480 126.009 69.351 124.465 C 68.313 123.046 68.000 122.963 68.000 124.109 C 68.000 126.135 70.013 128.000 72.200 128.000 C 74.185 128.000 74.653 130.479 72.875 131.577 C 72.140 132.032 71.919 134.619 72.236 139.053 C 72.787 146.758 72.531 147.467 68.665 148.937 C 64.462 150.535 59.089 150.223 53.368 148.048 C 48.474 146.188 47.000 146.231 47.000 148.234 C 47.000 148.729 47.848 148.866 48.885 148.536 C 49.937 148.203 53.141 149.020 56.135 150.387 L 61.500 152.836 57.500 152.912 C 55.300 152.954 52.263 152.342 50.750 151.553 C 49.238 150.764 48.000 150.512 48.000 150.992 C 48.000 151.472 46.988 152.171 45.750 152.544 C 42.404 153.553 35.004 158.349 35.002 159.509 C 35.001 160.065 35.941 161.106 37.091 161.825 C 38.967 162.996 39.112 163.728 38.503 168.970 C 37.762 175.361 37.503 175.047 44.703 176.495 C 50.549 177.670 60.919 170.586 66.664 161.492 C 71.118 154.442 73.726 155.679 78.037 166.885 C 79.226 169.973 81.242 175.034 82.519 178.131 L 84.840 183.763 81.420 187.078 C 75.391 192.921 77.096 194.769 86.811 192.920 C 95.071 191.348 95.983 190.679 96.068 186.128 C 96.106 184.132 96.893 179.575 97.818 176.000 C 99.283 170.339 99.823 169.465 102.000 169.228 C 104.046 169.005 106.567 171.145 115.892 181.019 C 130.053 196.014 133.849 198.431 142.750 198.115 C 145.275 198.026 146.000 197.562 146.000 196.035 C 146.000 194.955 145.028 193.550 143.840 192.914 C 141.843 191.846 141.813 191.684 143.434 190.777 C 144.398 190.237 145.826 188.267 146.607 186.398 C 147.692 183.802 148.625 183.000 150.559 183.000 C 151.951 183.000 154.195 181.895 155.545 180.545 C 157.569 178.522 158.000 177.104 158.000 172.471 C 158.000 167.025 157.830 166.673 152.500 161.085 C 148.606 157.002 147.000 154.528 147.000 152.610 C 147.000 151.120 146.292 148.532 145.428 146.860 C 141.674 139.601 147.876 138.846 156.467 145.516 C 165.812 152.773 169.000 152.744 169.000 145.401 C 169.000 139.759 166.300 134.407 161.070 129.682 C 157.604 126.551 156.298 126.000 152.342 126.000 C 148.871 126.000 146.822 126.661 144.279 128.601 C 142.403 130.032 140.709 131.043 140.514 130.848 C 140.319 130.653 139.002 125.926 137.587 120.344 L 135.014 110.194 138.183 103.424 C 140.636 98.181 141.453 94.887 141.804 88.827 C 142.053 84.522 142.537 81.023 142.878 81.052 C 143.220 81.080 144.931 82.891 146.681 85.076 L 149.861 89.048 152.318 85.774 C 157.197 79.273 163.763 62.589 161.897 61.436 C 161.403 61.131 160.993 61.246 160.985 61.691 C 160.976 62.136 160.592 61.905 160.131 61.178 C 159.275 59.828 153.242 58.067 149.327 58.024 C 148.131 58.011 145.803 59.137 144.152 60.526 C 142.501 61.915 140.914 62.669 140.625 62.202 C 140.336 61.735 139.672 57.907 139.149 53.695 C 138.354 47.294 137.606 45.232 134.587 41.118 C 129.558 34.267 127.317 28.703 126.144 20.152 C 125.020 11.950 123.661 8.864 124.572 16.579 M 136.337 121.750 C 138.906 135.160 138.273 142.000 134.463 142.000 C 133.656 142.000 129.134 143.338 124.413 144.974 C 103.723 152.143 80.130 151.025 74.857 142.625 C 72.503 138.875 72.869 133.105 75.645 130.200 C 77.556 128.200 86.276 124.000 88.517 124.000 C 89.212 124.000 92.455 125.969 95.725 128.377 C 105.799 135.793 107.844 136.332 113.815 133.149 C 117.855 130.995 128.377 120.743 131.145 116.265 C 132.255 114.469 133.500 113.000 133.912 113.000 C 134.323 113.000 135.414 116.938 136.337 121.750 M 87.000 160.136 C 92.590 161.637 114.976 162.325 120.000 161.152 C 126.176 159.709 126.887 160.946 123.136 166.608 C 120.708 170.274 120.000 172.433 120.000 176.171 C 120.000 178.827 119.752 181.000 119.450 181.000 C 119.147 181.000 116.110 178.102 112.700 174.561 C 105.905 167.503 102.035 165.753 99.101 168.409 C 97.212 170.118 94.243 179.916 93.771 185.998 C 93.503 189.457 93.432 189.507 87.250 190.608 C 80.851 191.747 79.017 190.861 83.524 188.807 C 87.671 186.918 87.428 184.309 81.959 172.000 C 79.148 165.675 76.618 159.959 76.336 159.299 C 75.783 158.002 80.399 158.365 87.000 160.136 M 133.607 146.582 C 133.273 147.452 132.986 149.364 132.968 150.832 C 132.939 153.321 132.844 153.378 131.549 151.670 C 130.721 150.577 129.223 149.973 127.831 150.170 C 125.833 150.453 125.500 151.072 125.500 154.500 L 125.500 158.500 111.610 158.779 C 97.515 159.062 82.410 157.284 77.137 154.719 C 74.934 153.648 72.506 148.828 73.612 147.721 C 73.835 147.499 76.376 148.100 79.259 149.058 C 82.141 150.017 86.975 151.026 90.000 151.302 C 98.167 152.046 115.617 150.135 124.600 147.513 C 134.398 144.653 134.345 144.658 133.607 146.582 M 159.041 130.178 C 162.865 132.993 166.542 139.162 167.436 144.263 C 168.581 150.794 164.687 150.146 155.775 142.321 C 148.964 136.341 144.234 136.983 141.036 144.324 C 139.580 147.667 139.074 148.149 138.499 146.742 C 138.090 145.742 138.474 143.521 139.390 141.591 C 140.275 139.725 141.000 137.112 141.000 135.786 C 141.000 133.441 144.942 128.864 148.000 127.658 C 150.647 126.614 155.795 127.789 159.041 130.178 M 68.511 153.018 C 70.418 156.104 54.246 174.000 49.550 174.000 C 49.247 174.000 49.000 172.643 49.000 170.984 C 49.000 168.521 48.357 167.661 45.500 166.299 C 43.575 165.381 42.000 164.347 42.000 164.002 C 42.000 161.554 52.209 155.042 56.200 154.944 C 57.465 154.913 60.075 154.291 62.000 153.563 C 66.482 151.867 67.735 151.762 68.511 153.018 M 130.000 158.423 C 130.000 159.206 131.238 161.317 132.750 163.115 C 135.033 165.828 135.498 167.326 135.488 171.941 C 135.470 179.843 134.386 183.257 132.124 182.539 C 131.057 182.201 129.168 182.866 127.524 184.160 C 124.829 186.280 124.686 186.292 123.379 184.504 C 119.768 179.565 120.956 169.799 125.704 165.399 C 127.740 163.511 128.135 162.423 127.653 160.016 C 127.200 157.752 127.418 157.000 128.525 157.000 C 129.336 157.000 130.000 157.640 130.000 158.423 M 146.000 152.906 C 146.000 155.044 147.353 157.216 151.118 161.122 C 156.228 166.424 156.234 166.439 155.683 171.785 C 155.073 177.690 153.722 180.000 150.878 180.000 C 149.395 180.000 149.000 179.257 149.000 176.467 C 149.000 174.523 147.944 170.811 146.652 168.217 C 145.361 165.623 143.457 161.095 142.421 158.156 C 140.569 152.902 140.570 152.788 142.460 151.406 C 145.272 149.349 146.000 149.657 146.000 152.906 M 138.784 155.879 C 138.735 157.599 139.954 160.519 141.811 163.129 C 144.775 167.297 147.435 175.488 146.379 177.196 C 146.106 177.638 143.884 178.000 141.441 178.000 L 137.000 178.000 137.000 172.968 C 137.000 170.200 136.325 166.320 135.500 164.346 C 133.676 159.981 133.544 154.350 135.250 153.662 C 137.992 152.556 138.863 153.103 138.784 155.879 M 138.662 188.750 C 139.601 190.263 141.243 192.490 142.311 193.699 C 144.249 195.894 144.248 195.900 141.706 196.538 C 135.966 197.978 133.312 195.480 134.403 189.663 C 135.224 185.289 136.361 185.045 138.662 188.750 M 50.000 155.367 C 48.075 156.391 45.305 158.346 43.844 159.711 C 41.055 162.318 37.000 162.206 37.000 159.522 C 37.000 157.534 46.972 152.876 50.500 153.216 L 53.500 153.505 50.000 155.367 M 144.792 180.250 C 145.910 181.597 143.827 188.000 142.271 188.000 C 138.866 188.000 135.474 181.860 137.667 179.667 C 138.802 178.532 143.699 178.933 144.792 180.250 M 46.750 168.792 C 48.319 170.788 48.311 171.193 46.656 173.456 C 45.665 174.811 44.612 175.119 42.656 174.628 C 40.450 174.075 40.000 173.401 40.000 170.648 C 40.000 168.825 40.305 167.028 40.678 166.656 C 41.665 165.668 45.300 166.947 46.750 168.792 M 133.473 184.956 C 133.798 185.482 133.389 187.527 132.564 189.500 C 131.080 193.053 131.040 193.072 128.532 191.429 C 125.808 189.644 125.270 187.130 127.200 185.200 C 128.634 183.766 132.641 183.610 133.473 184.956 M 143.820 147.172 C 143.415 149.920 141.000 150.843 141.000 148.250 C 141.000 146.175 141.808 145.000 143.236 145.000 C 143.733 145.000 143.995 145.977 143.820 147.172 "/></g>
<g fill="#444444FE" stroke="#444444FE">
<path d="M 99.220 171.384 C 98.520 172.970 97.462 177.470 96.869 181.384 C 96.276 185.298 95.460 189.161 95.056 189.969 C 94.221 191.638 81.919 194.567 79.554 193.659 C 77.027 192.689 77.764 189.925 81.436 186.606 L 84.872 183.500 82.297 177.722 C 79.749 172.006 79.684 171.950 76.111 172.461 C 74.125 172.745 70.250 173.230 67.500 173.537 C 60.746 174.293 56.651 175.016 56.122 175.544 C 55.881 175.785 54.994 175.424 54.150 174.741 C 52.926 173.751 52.768 173.753 53.367 174.750 C 53.848 175.550 53.519 176.000 52.454 176.000 C 49.134 176.000 34.125 181.114 31.588 183.109 C 28.010 185.924 26.711 188.594 27.871 190.750 C 28.734 192.354 35.384 196.100 42.297 198.876 C 44.264 199.666 63.836 200.000 108.226 200.000 C 170.507 200.000 171.450 199.970 178.179 197.803 C 181.931 196.595 185.000 195.245 185.000 194.803 C 185.000 194.361 185.510 194.000 186.133 194.000 C 187.438 194.000 191.000 190.155 191.000 188.747 C 191.000 186.280 184.102 181.167 178.491 179.475 C 170.112 176.947 168.344 176.499 162.584 175.446 C 160.980 175.153 159.293 174.681 158.834 174.398 C 158.375 174.114 158.000 174.829 158.000 175.986 C 158.000 178.882 153.631 183.000 150.559 183.000 C 148.608 183.000 147.690 183.807 146.559 186.514 C 145.751 188.447 144.355 190.310 143.456 190.655 C 142.090 191.179 142.288 191.658 144.661 193.567 C 148.310 196.503 146.920 198.152 140.717 198.245 C 134.058 198.346 129.011 194.859 115.844 181.062 C 109.513 174.428 103.921 169.007 103.417 169.015 C 102.913 169.024 103.175 169.467 104.000 170.000 C 105.169 170.755 104.893 170.973 102.750 170.985 C 101.079 170.994 100.097 170.509 100.246 169.750 C 100.381 169.063 99.920 169.798 99.220 171.384 "/></g>
<g fill="#B6B6B8FE" stroke="#B6B6B8FE">
<path d="M 115.852 6.710 C 114.423 8.244 112.634 10.810 111.877 12.410 C 110.097 16.171 106.216 19.006 102.469 19.282 C 99.799 19.478 99.248 18.972 97.000 14.254 C 95.625 11.368 94.275 9.008 94.000 9.010 C 92.913 9.016 90.000 15.306 90.000 17.647 C 90.000 21.565 88.460 23.527 82.001 27.841 C 76.464 31.538 69.270 34.325 63.000 35.200 C 61.592 35.397 64.420 36.291 69.478 37.248 C 77.467 38.760 78.789 39.326 81.478 42.389 C 86.975 48.648 90.658 49.467 93.203 44.994 C 95.567 40.840 98.722 41.080 103.148 45.750 C 110.023 53.005 110.139 53.393 107.513 60.370 C 106.236 63.761 104.872 68.671 104.480 71.282 C 104.071 74.014 103.074 76.436 102.134 76.985 C 100.880 77.717 101.348 77.946 104.145 77.970 C 109.288 78.013 119.643 74.616 125.290 71.033 C 127.924 69.361 131.694 67.319 133.668 66.494 L 137.257 64.995 136.802 57.133 C 136.384 49.925 135.999 48.750 132.164 43.008 C 127.172 35.532 125.524 30.140 123.758 15.500 C 122.589 5.814 122.193 4.465 120.441 4.210 C 119.279 4.041 117.370 5.081 115.852 6.710 M 118.026 28.374 C 117.284 29.116 116.042 28.503 113.852 26.314 C 110.964 23.426 110.819 22.958 111.872 19.938 C 112.497 18.145 114.244 15.063 115.754 13.089 L 118.500 9.500 118.791 18.409 C 118.965 23.731 118.657 27.743 118.026 28.374 M 90.606 34.338 L 93.324 36.676 91.103 38.897 C 88.485 41.515 83.302 41.459 81.634 38.795 C 80.795 37.454 81.078 36.546 82.958 34.545 C 85.912 31.400 87.152 31.367 90.606 34.338 "/></g>
<g fill="#AA524EFE" stroke="#AA524EFE">
<path d="M 127.000 73.049 C 113.236 80.375 104.757 81.622 93.251 78.015 C 86.341 75.849 75.020 74.395 72.523 75.353 C 71.094 75.901 71.138 76.274 72.914 78.735 C 74.013 80.256 75.891 84.160 77.088 87.411 C 78.779 92.004 81.069 95.202 87.361 101.756 C 91.814 106.395 96.741 111.103 98.309 112.220 L 101.160 114.250 104.978 110.521 C 107.078 108.470 109.628 105.152 110.644 103.146 C 114.178 96.172 116.307 93.790 122.884 89.449 C 134.391 81.855 136.000 80.043 136.000 74.677 C 136.000 68.993 134.970 68.807 127.000 73.049 M 122.638 87.474 C 119.529 89.828 110.649 92.170 106.455 91.741 L 102.500 91.336 107.000 91.159 C 109.475 91.061 113.750 89.875 116.500 88.522 C 122.148 85.744 125.730 85.132 122.638 87.474 "/></g>
<g fill="#444444FE" stroke="#444444FE">
<path d="M 130.772 116.750 C 127.244 122.054 117.351 131.616 113.635 133.313 C 110.229 134.869 103.251 136.415 104.280 135.387 C 104.629 135.038 103.246 133.606 101.207 132.205 C 90.781 125.041 89.133 124.000 88.214 124.000 C 86.646 124.000 78.384 127.934 79.500 128.149 C 80.050 128.255 79.689 128.389 78.697 128.447 C 77.706 128.505 76.519 129.161 76.059 129.904 C 75.600 130.648 74.754 130.966 74.181 130.612 C 73.607 130.257 72.813 130.494 72.415 131.138 C 71.957 131.878 72.125 132.041 72.869 131.581 C 73.732 131.048 73.905 132.010 73.516 135.176 C 73.224 137.554 73.251 138.938 73.576 138.250 C 73.907 137.549 75.995 136.993 78.333 136.985 C 81.392 136.973 82.101 136.712 81.000 136.000 C 80.175 135.467 78.277 135.024 76.781 135.015 C 73.684 134.998 73.843 132.536 76.994 131.712 C 78.337 131.361 78.691 131.642 78.274 132.730 C 77.791 133.987 78.053 134.042 79.876 133.066 C 81.075 132.425 81.761 131.423 81.401 130.841 C 80.956 130.120 82.066 130.004 84.873 130.479 C 88.155 131.033 89.000 130.874 89.000 129.705 C 89.000 127.790 92.208 126.977 94.564 128.296 C 96.352 129.296 96.350 129.351 94.513 129.996 C 92.868 130.572 93.040 130.850 95.798 132.071 C 98.257 133.159 98.856 133.938 98.426 135.490 C 97.973 137.125 98.068 137.220 98.934 136.000 C 99.795 134.789 100.163 134.752 100.846 135.809 C 101.479 136.789 103.805 136.988 110.088 136.601 C 114.927 136.302 117.897 136.445 117.099 136.939 C 116.251 137.463 115.940 138.663 116.297 140.028 C 117.003 142.729 114.813 145.413 113.211 143.811 C 112.628 143.228 108.522 142.553 104.087 142.311 L 96.024 141.872 96.381 144.936 C 96.667 147.389 96.365 148.000 94.869 148.000 C 92.760 148.000 92.345 146.431 94.250 145.662 C 94.938 145.385 93.475 145.069 91.000 144.961 C 88.525 144.852 85.150 144.388 83.500 143.928 C 81.507 143.374 82.766 143.272 87.250 143.626 C 92.918 144.074 94.000 143.910 94.000 142.604 C 94.000 141.324 93.518 141.233 91.271 142.087 C 89.558 142.739 88.422 142.767 88.221 142.164 C 87.829 140.988 79.999 141.875 78.199 143.300 C 77.231 144.066 76.754 143.776 76.333 142.164 C 75.803 140.138 74.000 139.066 74.000 140.777 C 74.000 142.956 77.484 145.977 81.626 147.388 C 92.829 151.206 109.097 150.292 124.096 145.003 C 128.718 143.373 133.272 142.031 134.215 142.020 C 136.510 141.993 137.999 138.969 138.007 134.316 C 138.015 129.474 134.890 113.000 133.963 113.000 C 133.579 113.000 132.143 114.688 130.772 116.750 M 106.850 144.523 C 107.577 145.237 105.821 147.000 104.382 147.000 C 103.557 147.000 103.136 146.588 103.447 146.085 C 103.758 145.582 102.772 144.682 101.256 144.084 C 98.757 143.098 98.873 143.052 102.500 143.588 C 104.700 143.913 106.658 144.333 106.850 144.523 "/></g>
<g fill="#626060FE" stroke="#626060FE">
<path d="M 90.750 127.748 C 89.788 127.967 89.000 128.828 89.000 129.661 C 89.000 130.882 88.199 131.041 84.873 130.479 C 82.066 130.004 80.956 130.120 81.401 130.841 C 81.761 131.423 81.075 132.425 79.876 133.066 C 78.053 134.042 77.791 133.987 78.274 132.730 C 78.691 131.642 78.337 131.361 76.994 131.712 C 73.843 132.536 73.684 134.998 76.781 135.015 C 78.277 135.024 80.175 135.467 81.000 136.000 C 82.099 136.710 81.362 136.973 78.250 136.985 C 75.146 136.996 74.000 137.404 74.000 138.500 C 74.000 139.325 74.398 140.000 74.883 140.000 C 75.369 140.000 76.021 140.974 76.333 142.164 C 76.754 143.776 77.231 144.066 78.199 143.300 C 79.999 141.875 87.829 140.988 88.221 142.164 C 88.422 142.767 89.558 142.739 91.271 142.087 C 93.518 141.233 94.000 141.324 94.000 142.604 C 94.000 143.910 92.918 144.074 87.250 143.626 C 82.766 143.272 81.507 143.374 83.500 143.928 C 85.150 144.388 88.525 144.852 91.000 144.961 C 93.475 145.069 94.938 145.385 94.250 145.662 C 92.345 146.431 92.760 148.000 94.869 148.000 C 96.366 148.000 96.667 147.389 96.380 144.925 L 96.022 141.851 106.539 142.461 L 117.056 143.071 116.393 140.428 C 115.951 138.668 116.189 137.501 117.107 136.934 C 117.894 136.447 114.887 136.305 110.088 136.601 C 103.805 136.988 101.479 136.789 100.846 135.809 C 100.163 134.752 99.795 134.789 98.934 136.000 C 98.068 137.220 97.973 137.125 98.426 135.490 C 98.856 133.938 98.257 133.159 95.798 132.071 C 93.017 130.840 92.857 130.576 94.535 129.988 C 96.414 129.329 96.413 129.293 94.478 128.332 C 93.390 127.792 91.713 127.529 90.750 127.748 "/></g>
<g fill="#626060FE" stroke="#626060FE">
<path d="M 111.000 151.085 C 108.525 151.544 101.325 151.902 95.000 151.879 C 88.675 151.856 83.500 151.926 83.500 152.034 C 83.500 152.142 82.663 152.142 81.641 152.034 C 80.400 151.903 80.034 152.246 80.540 153.064 C 81.103 153.976 80.553 154.122 78.399 153.632 C 75.994 153.085 75.812 153.162 77.332 154.082 C 78.339 154.692 80.005 154.971 81.034 154.701 C 82.062 154.432 83.038 154.598 83.202 155.069 C 83.975 157.294 107.031 158.672 116.164 157.040 C 123.682 155.696 124.613 155.014 123.011 152.021 C 121.832 149.818 119.015 149.598 111.000 151.085 M 120.000 153.000 C 120.000 155.111 117.309 155.512 106.000 155.090 C 103.525 154.998 99.948 155.384 98.051 155.948 C 96.154 156.513 94.354 156.599 94.051 156.141 C 93.748 155.683 92.150 154.923 90.500 154.453 C 87.878 153.706 88.220 153.574 93.214 153.407 C 96.774 153.289 98.847 153.613 98.714 154.269 C 98.578 154.936 98.757 154.960 99.202 154.334 C 99.607 153.764 101.942 153.608 104.720 153.964 C 108.798 154.487 116.469 153.629 113.500 152.981 C 112.950 152.861 113.850 152.420 115.500 152.000 C 120.006 150.853 120.000 150.852 120.000 153.000 "/></g>
<g fill="#444444FE" stroke="#444444FE">
<path d="M 134.327 84.352 C 132.772 85.645 129.571 87.911 127.213 89.387 C 124.855 90.864 123.191 92.500 123.515 93.024 C 123.839 93.548 123.477 93.736 122.710 93.442 C 121.895 93.129 119.735 94.658 117.506 97.125 C 113.824 101.201 113.768 101.370 115.849 102.140 C 117.033 102.578 118.677 102.678 119.501 102.361 C 121.035 101.773 121.567 104.300 121.111 110.000 C 120.962 111.860 121.584 111.220 123.543 107.500 C 124.990 104.750 127.036 101.753 128.087 100.840 C 130.925 98.377 130.407 97.738 127.000 99.500 C 125.054 100.506 123.989 101.833 123.970 103.276 C 123.942 105.266 123.832 105.316 122.921 103.752 C 121.715 101.682 124.707 96.774 126.738 97.491 C 127.419 97.731 127.869 97.382 127.738 96.714 C 127.588 95.949 129.094 95.385 131.810 95.190 C 134.409 95.002 136.891 94.109 138.060 92.940 C 140.047 90.953 140.775 85.000 139.031 85.000 C 138.499 85.000 138.322 84.325 138.638 83.500 C 139.486 81.290 137.546 81.674 134.327 84.352 "/></g>
<g fill="#444444FE" stroke="#444444FE">
<path d="M 75.730 101.925 C 75.377 103.273 75.641 103.691 76.607 103.320 C 77.367 103.029 77.740 102.388 77.435 101.895 C 76.811 100.885 78.330 100.663 79.291 101.624 C 79.634 101.967 78.925 103.050 77.715 104.030 C 76.150 105.297 75.015 105.543 73.780 104.882 C 72.385 104.136 72.172 104.284 72.692 105.641 C 73.164 106.871 72.981 107.106 72.015 106.510 C 71.174 105.990 70.931 106.079 71.349 106.755 C 71.710 107.341 71.668 108.648 71.253 109.660 C 70.697 111.020 70.465 111.109 70.365 110.000 C 70.124 107.306 69.806 108.417 69.598 112.687 C 69.466 115.396 69.766 116.652 70.447 116.245 C 71.026 115.899 70.907 116.348 70.182 117.243 C 69.457 118.137 69.007 120.361 69.182 122.185 C 69.476 125.249 69.794 125.524 73.383 125.818 C 76.701 126.090 77.171 125.888 76.610 124.427 C 76.060 122.993 76.199 122.920 77.472 123.977 C 78.708 125.002 79.467 124.924 81.557 123.555 C 82.969 122.629 83.960 121.379 83.759 120.776 C 83.214 119.142 76.895 116.008 74.016 115.944 C 71.782 115.893 71.881 115.753 74.900 114.694 C 77.677 113.719 78.531 112.714 79.556 109.212 C 80.247 106.853 80.729 104.378 80.628 103.712 C 80.053 99.929 76.583 98.663 75.730 101.925 "/></g>
<g fill="#444444FE" stroke="#444444FE">
<path d="M 148.882 127.619 C 148.816 128.104 148.816 128.838 148.882 129.250 C 148.947 129.663 148.550 130.000 148.000 130.000 C 147.450 130.000 147.000 129.475 147.000 128.833 C 147.000 127.537 145.572 128.635 145.375 130.083 C 145.306 130.588 145.194 130.705 145.125 130.345 C 144.765 128.457 141.000 133.728 141.000 136.121 C 141.000 137.667 140.240 140.527 139.310 142.476 C 138.003 145.216 137.890 146.290 138.810 147.210 C 139.730 148.130 140.000 148.114 140.000 147.141 C 140.000 146.449 140.384 146.119 140.853 146.409 C 141.322 146.699 142.559 146.251 143.603 145.413 C 145.401 143.969 145.383 143.947 143.250 144.980 C 140.074 146.519 140.201 143.708 143.455 140.455 C 147.108 136.801 150.235 137.381 156.496 142.872 L 159.493 145.500 157.246 142.936 C 155.038 140.415 154.125 137.341 155.912 138.446 C 156.414 138.756 156.710 138.229 156.570 137.275 C 156.430 136.321 157.379 134.703 158.679 133.681 L 161.043 131.821 158.537 129.850 C 155.844 127.732 149.077 126.168 148.882 127.619 "/></g>
<g fill="#444444FE" stroke="#444444FE">
<path d="M 120.500 161.006 C 118.850 161.423 113.540 161.817 108.700 161.882 C 100.615 161.990 99.983 162.142 100.920 163.750 C 101.486 164.721 101.953 164.944 101.970 164.250 C 101.986 163.563 102.775 163.000 103.723 163.000 C 105.176 163.000 105.114 163.232 103.330 164.482 C 101.445 165.802 101.067 165.786 99.862 164.334 C 98.624 162.842 98.510 162.857 98.505 164.516 C 98.502 165.513 97.875 166.537 97.111 166.794 C 96.274 167.074 95.996 166.815 96.413 166.141 C 96.856 165.425 96.536 165.241 95.523 165.630 C 94.082 166.182 94.083 166.340 95.530 167.398 C 96.822 168.343 96.916 169.091 96.031 171.418 C 95.433 172.991 95.160 174.493 95.423 174.757 C 95.687 175.020 96.194 174.076 96.549 172.659 C 96.905 171.242 97.822 169.563 98.587 168.928 C 99.352 168.293 99.731 167.374 99.430 166.887 C 98.665 165.648 99.519 165.772 103.654 167.500 C 108.202 169.400 108.279 169.390 107.035 167.066 C 106.466 166.002 106.000 164.652 106.000 164.066 C 106.000 162.446 111.583 162.793 113.000 164.500 C 114.050 165.766 113.782 166.094 111.289 166.592 C 107.470 167.356 107.552 169.173 111.580 173.078 C 114.799 176.197 117.463 176.370 116.317 173.384 C 115.878 172.240 115.525 172.151 114.973 173.044 C 113.740 175.038 112.001 173.172 112.879 170.797 C 113.414 169.353 113.909 169.044 114.404 169.845 C 114.808 170.498 115.557 170.774 116.069 170.457 C 116.581 170.141 117.000 170.532 117.000 171.327 C 117.000 172.121 117.672 174.060 118.494 175.636 L 119.988 178.500 120.029 175.000 C 120.077 170.985 122.236 166.500 124.121 166.500 C 125.632 166.500 125.991 160.774 124.500 160.460 C 123.950 160.344 122.150 160.590 120.500 161.006 "/></g>
<g fill="#444444FE" stroke="#444444FE">
<path d="M 88.196 116.664 C 85.495 119.744 86.679 122.286 89.708 119.908 C 91.328 118.635 91.373 118.662 90.176 120.192 C 89.008 121.684 89.324 122.124 92.858 123.928 C 95.061 125.052 97.225 126.540 97.666 127.236 C 98.278 128.201 98.495 128.145 98.582 127.000 C 98.644 126.175 98.764 125.628 98.848 125.785 C 98.931 125.942 100.013 125.549 101.250 124.913 C 103.078 123.972 103.272 123.997 102.285 125.043 C 101.325 126.060 101.421 126.588 102.743 127.554 C 104.899 129.131 107.000 128.311 107.000 125.893 C 107.000 124.694 107.703 124.000 108.917 124.000 C 111.991 124.000 111.930 121.609 108.823 120.292 C 107.255 119.628 106.031 118.728 106.104 118.292 C 106.177 117.857 106.132 117.725 106.003 118.000 C 105.874 118.275 105.709 119.175 105.635 120.000 C 105.561 120.825 104.847 119.925 104.048 118.000 C 103.250 116.075 102.687 115.201 102.798 116.057 C 103.072 118.176 97.011 117.770 95.790 115.588 C 94.449 113.193 90.785 113.712 88.196 116.664 M 101.079 119.856 C 101.129 120.893 101.344 121.039 101.662 120.250 C 101.940 119.563 102.634 119.000 103.206 119.000 C 103.867 119.000 103.824 119.508 103.086 120.397 C 101.838 121.900 98.657 121.498 97.118 119.642 C 96.456 118.844 96.898 118.457 98.586 118.356 C 100.190 118.260 101.026 118.763 101.079 119.856 "/></g>
<g fill="#626060FE" stroke="#626060FE">
<path d="M 84.000 160.898 C 84.000 161.412 84.563 162.092 85.250 162.407 C 85.938 162.723 85.546 162.749 84.380 162.465 C 82.628 162.038 82.147 162.515 81.607 165.216 C 81.221 167.144 81.373 168.624 81.977 168.826 C 82.539 169.013 83.007 170.142 83.015 171.333 C 83.026 172.912 83.261 173.136 83.881 172.158 C 84.519 171.152 85.204 171.083 86.616 171.883 C 89.966 173.780 96.090 175.955 95.530 175.048 C 95.231 174.564 95.465 172.906 96.052 171.364 C 96.913 169.099 96.813 168.336 95.530 167.398 C 94.083 166.340 94.082 166.182 95.523 165.630 C 96.392 165.296 96.846 165.441 96.530 165.951 C 95.530 167.569 100.401 166.695 102.885 164.810 C 104.689 163.441 104.872 163.000 103.635 163.000 C 102.736 163.000 101.986 163.563 101.970 164.250 C 101.952 164.966 101.516 164.774 100.948 163.800 C 100.227 162.564 98.937 162.193 96.228 162.442 C 94.178 162.630 91.825 162.445 91.000 162.030 C 88.227 160.637 84.000 159.953 84.000 160.898 "/></g>
<g fill="#626060FE" stroke="#626060FE">
<path d="M 137.499 93.187 C 136.858 94.259 134.881 94.976 131.999 95.180 C 129.139 95.384 127.587 95.942 127.738 96.714 C 127.869 97.382 127.419 97.731 126.738 97.491 C 124.707 96.774 121.715 101.682 122.921 103.752 C 123.832 105.316 123.942 105.266 123.970 103.276 C 123.989 101.833 125.054 100.506 127.000 99.500 C 130.418 97.732 130.931 98.386 128.052 100.840 C 126.980 101.753 124.569 105.650 122.693 109.500 C 119.530 115.994 119.449 116.392 121.569 115.000 C 122.827 114.175 123.588 113.838 123.261 114.250 C 122.934 114.663 123.206 115.000 123.865 115.000 C 124.524 115.000 125.332 114.299 125.660 113.443 C 125.999 112.560 126.907 112.134 127.756 112.460 C 129.841 113.260 131.988 110.007 131.360 107.000 C 130.959 105.079 131.077 104.842 131.870 105.979 C 132.691 107.156 133.415 106.335 135.423 101.948 C 137.993 96.336 139.552 89.754 137.499 93.187 "/></g>
<g fill="#6082C0FE" stroke="#6082C0FE">
<path d="M 142.338 152.062 C 141.085 153.315 142.648 158.397 147.081 167.485 C 148.686 170.777 150.000 174.714 150.000 176.235 C 150.000 179.347 151.115 179.771 153.078 177.406 C 154.207 176.046 154.041 175.519 151.951 173.823 L 149.500 171.835 152.750 172.393 C 155.530 172.869 156.000 172.657 156.000 170.925 C 156.000 167.887 153.619 163.878 149.694 160.310 C 147.764 158.556 145.883 155.743 145.513 154.060 C 144.800 150.812 144.056 150.344 142.338 152.062 "/></g>
<g fill="#86AAE0FE" stroke="#86AAE0FE">
<path d="M 55.409 155.944 C 53.709 156.350 50.681 158.441 48.681 160.591 L 45.043 164.500 47.522 166.538 C 48.885 167.658 50.000 169.424 50.000 170.462 C 50.000 172.173 50.242 172.122 52.592 169.924 C 54.803 167.856 62.000 156.781 62.000 155.446 C 62.000 154.837 59.133 155.053 55.409 155.944 "/></g>
<g fill="#040204FE" stroke="#040204FE">
<path d="M 61.000 33.656 C 51.256 35.151 51.999 34.643 52.006 39.795 C 52.018 50.282 55.906 56.561 65.829 62.121 C 68.948 63.869 72.792 66.469 74.371 67.899 L 77.242 70.500 75.628 67.312 C 74.545 65.175 71.987 63.044 67.869 60.850 C 62.991 58.250 62.041 57.377 63.257 56.610 C 64.500 55.826 64.065 55.286 60.945 53.743 C 58.310 52.439 56.457 50.509 55.051 47.605 C 52.656 42.659 52.392 39.000 54.429 39.000 C 55.214 39.000 56.638 38.213 57.593 37.250 C 58.548 36.288 61.393 34.991 63.915 34.369 C 68.275 33.293 66.383 32.830 61.000 33.656 "/></g>
<g fill="#AA524EFE" stroke="#AA524EFE">
<path d="M 145.667 69.667 C 145.300 70.033 145.000 72.430 145.000 74.992 C 145.000 78.569 145.537 80.156 147.314 81.826 C 150.443 84.765 151.480 84.578 153.918 80.632 C 156.894 75.818 156.556 74.516 151.572 71.595 C 146.693 68.736 146.621 68.712 145.667 69.667 "/></g>
<g fill="#444444FE" stroke="#444444FE">
<path d="M 125.638 113.500 C 125.322 114.325 124.572 115.000 123.972 115.000 C 123.373 115.000 123.206 114.438 123.602 113.750 C 123.998 113.063 123.088 113.625 121.579 115.000 C 119.820 116.602 118.955 116.961 119.168 116.000 C 119.350 115.175 118.514 116.075 117.309 118.000 C 116.104 119.925 114.750 121.950 114.301 122.500 C 113.593 123.365 113.368 126.749 113.849 129.301 C 114.131 130.795 120.834 124.900 125.014 119.482 C 127.302 116.516 128.883 113.620 128.528 113.045 C 127.604 111.551 126.308 111.755 125.638 113.500 "/></g>
<g fill="#626060FE" stroke="#626060FE">
<path d="M 120.000 118.290 C 117.159 119.602 115.908 121.042 116.616 122.187 C 116.882 122.618 115.727 122.695 114.050 122.360 C 112.096 121.969 111.000 122.154 111.000 122.875 C 111.000 123.494 110.100 124.000 109.000 124.000 C 107.704 124.000 107.000 124.667 107.000 125.893 C 107.000 128.311 104.899 129.131 102.743 127.554 C 101.421 126.588 101.325 126.060 102.285 125.043 C 103.269 124.000 103.098 123.962 101.381 124.842 C 100.216 125.440 98.979 125.645 98.631 125.298 C 98.284 124.951 98.000 125.140 98.000 125.718 C 98.000 126.297 99.125 127.507 100.500 128.408 C 101.875 129.309 103.000 129.756 103.000 129.401 C 103.000 129.046 103.563 129.171 104.250 129.680 C 106.942 131.671 111.687 131.174 114.622 128.594 C 116.205 127.202 116.986 126.049 116.357 126.032 C 115.728 126.014 114.863 126.788 114.434 127.750 C 113.847 129.068 113.620 128.697 113.513 126.250 C 113.435 124.463 113.738 123.000 114.186 123.000 C 114.634 123.000 115.000 123.525 115.000 124.167 C 115.000 124.808 115.296 125.037 115.658 124.675 C 116.020 124.313 117.004 124.576 117.845 125.259 C 119.128 126.300 119.269 126.217 118.719 124.750 C 118.273 123.561 118.552 123.000 119.590 123.000 C 120.431 123.000 120.840 122.550 120.500 122.000 C 120.160 121.450 120.514 121.000 121.286 121.000 C 122.058 121.000 123.505 120.100 124.500 119.000 C 126.250 117.066 126.247 117.002 124.405 117.068 C 123.357 117.105 121.375 117.655 120.000 118.290 "/></g>
<g fill="#AA524EFE" stroke="#AA524EFE">
<path d="M 144.750 61.721 C 142.347 64.381 142.487 64.655 146.593 65.321 C 148.569 65.642 151.784 67.124 153.738 68.614 C 157.143 71.211 157.347 71.246 158.645 69.471 C 160.623 66.766 160.305 63.234 157.971 61.985 C 156.856 61.388 153.818 60.648 151.221 60.341 C 147.368 59.886 146.178 60.140 144.750 61.721 "/></g>
<g fill="#444444FE" stroke="#444444FE">
<path d="M 125.000 147.562 C 120.875 148.835 118.497 149.905 119.715 149.939 C 121.953 150.001 124.537 153.323 123.567 154.892 C 122.716 156.269 117.222 157.202 105.500 157.962 L 94.500 158.675 109.750 158.838 C 121.308 158.961 125.033 158.697 125.135 157.750 C 125.209 157.063 125.321 155.150 125.385 153.500 C 125.475 151.161 126.014 150.427 127.831 150.170 C 129.223 149.973 130.721 150.577 131.549 151.670 C 132.844 153.378 132.939 153.321 132.968 150.832 C 132.986 149.364 133.273 147.452 133.607 146.582 C 134.340 144.671 134.373 144.667 125.000 147.562 "/></g>
<g fill="#86AAE0FE" stroke="#86AAE0FE">
<path d="M 126.731 168.644 C 124.898 173.757 124.391 182.506 125.874 183.422 C 126.355 183.719 127.985 182.816 129.497 181.415 C 131.871 179.216 132.178 178.298 131.752 174.684 C 131.481 172.383 130.632 168.990 129.865 167.144 L 128.471 163.788 126.731 168.644 "/></g>
<g fill="#6082C0FE" stroke="#6082C0FE">
<path d="M 64.757 153.116 C 63.821 153.640 61.429 156.865 59.441 160.284 C 57.453 163.703 54.427 167.963 52.717 169.750 C 48.920 173.718 50.324 173.988 55.316 170.250 C 59.211 167.333 67.972 156.314 67.989 154.309 C 68.005 152.535 66.673 152.044 64.757 153.116 "/></g>
<g fill="#040204FE" stroke="#040204FE">
<path d="M 76.672 72.661 C 76.274 73.059 75.026 73.526 73.899 73.698 C 71.179 74.113 67.800 75.961 68.189 76.821 C 68.360 77.198 69.850 80.762 71.500 84.741 C 74.511 92.002 76.582 94.388 75.412 89.250 C 75.068 87.738 73.890 84.578 72.794 82.230 C 69.793 75.796 70.622 74.881 79.234 75.122 C 83.230 75.234 87.063 75.758 87.750 76.285 C 88.438 76.813 89.000 76.976 89.000 76.647 C 89.000 76.318 90.013 76.422 91.250 76.878 C 95.644 78.497 99.000 79.026 99.000 78.100 C 99.000 77.049 90.006 74.878 88.783 75.634 C 88.352 75.900 88.000 75.689 88.000 75.164 C 88.000 74.639 86.313 74.011 84.250 73.767 C 82.188 73.523 79.801 73.012 78.948 72.631 C 78.094 72.250 77.070 72.263 76.672 72.661 "/></g>
<g fill="#86AAE0FE" stroke="#86AAE0FE">
<path d="M 135.000 157.449 C 135.000 159.437 135.675 162.680 136.500 164.654 C 137.325 166.629 138.000 170.214 138.000 172.622 C 138.000 176.369 138.296 177.000 140.050 177.000 C 141.972 177.000 142.056 176.613 141.395 170.771 C 140.107 159.394 135.000 148.753 135.000 157.449 "/></g>
<g fill="#444444FE" stroke="#444444FE">
<path d="M 115.500 152.000 C 113.850 152.420 112.950 152.861 113.500 152.981 C 116.469 153.629 108.798 154.487 104.720 153.964 C 101.942 153.608 99.607 153.764 99.202 154.334 C 98.757 154.960 98.578 154.936 98.714 154.269 C 98.848 153.611 96.788 153.299 93.214 153.436 C 88.112 153.633 87.848 153.742 90.750 154.453 C 94.547 155.384 95.204 157.463 91.476 156.751 C 90.088 156.485 88.711 156.658 88.417 157.134 C 87.573 158.499 92.074 158.119 96.981 156.411 C 99.446 155.552 103.496 154.942 105.981 155.054 C 117.032 155.553 120.000 155.118 120.000 153.000 C 120.000 150.852 120.006 150.853 115.500 152.000 "/></g>
<g fill="#6082C0FE" stroke="#6082C0FE">
<path d="M 129.000 161.925 C 129.000 163.134 129.732 166.362 130.627 169.098 C 131.599 172.071 132.040 175.666 131.722 178.036 C 131.067 182.917 133.418 183.660 134.375 178.875 C 135.788 171.811 135.108 167.411 132.000 163.500 C 129.387 160.212 129.000 160.009 129.000 161.925 "/></g>
<g fill="#444444FE" stroke="#444444FE">
<path d="M 81.999 106.502 C 81.450 107.948 81.000 110.053 81.000 111.182 C 81.000 112.821 81.452 113.112 83.250 112.630 C 84.488 112.299 86.963 112.021 88.750 112.014 C 90.538 112.006 92.000 111.626 92.000 111.170 C 92.000 110.713 89.975 108.885 87.499 107.107 L 82.998 103.874 81.999 106.502 "/></g>
<g fill="#444444FE" stroke="#444444FE">
<path d="M 75.393 89.582 C 75.727 90.452 76.000 91.554 76.000 92.030 C 76.000 93.103 78.676 96.074 89.704 107.250 C 98.005 115.662 100.000 117.164 100.000 115.000 C 100.000 114.450 99.663 114.000 99.250 114.000 C 98.028 113.999 87.537 103.739 85.614 100.663 C 84.638 99.103 83.609 98.058 83.326 98.341 C 82.388 99.278 77.000 92.274 77.000 90.118 C 77.000 88.953 76.502 88.000 75.893 88.000 C 75.284 88.000 75.059 88.712 75.393 89.582 "/></g>
<g fill="#B6B6B8FE" stroke="#B6B6B8FE">
<path d="M 158.579 133.913 C 155.893 136.881 155.586 141.316 157.922 143.429 C 159.852 145.176 159.923 145.147 160.535 142.362 C 160.882 140.788 161.545 138.290 162.009 136.811 C 163.176 133.094 160.991 131.247 158.579 133.913 "/></g>
<g fill="#444444FE" stroke="#444444FE">
<path d="M 135.885 186.628 C 135.635 188.513 135.292 189.477 135.041 189.000 C 134.895 188.725 134.607 189.963 134.400 191.750 C 134.125 194.129 134.423 195.000 135.512 195.000 C 136.330 195.000 137.000 195.465 137.000 196.034 C 137.000 196.603 138.238 196.881 139.750 196.652 C 141.968 196.317 142.162 196.097 140.756 195.513 C 139.796 195.116 139.279 194.358 139.605 193.830 C 139.946 193.279 141.114 193.616 142.349 194.622 C 143.532 195.585 143.030 194.909 141.232 193.120 C 139.435 191.330 138.193 189.497 138.471 189.046 C 138.750 188.595 138.308 187.671 137.489 186.991 C 136.670 186.311 135.948 186.148 135.885 186.628 "/></g>
<g fill="#6082C0FE" stroke="#6082C0FE">
<path d="M 141.447 170.238 C 142.086 175.882 143.097 177.941 145.250 177.985 C 146.653 178.013 145.962 172.514 144.027 168.250 C 142.966 165.913 141.793 164.000 141.420 164.000 C 141.047 164.000 141.059 166.807 141.447 170.238 "/></g>
<g fill="#444444FE" stroke="#444444FE">
<path d="M 119.591 2.147 C 120.027 2.852 119.444 2.986 117.875 2.542 C 116.441 2.135 115.987 2.210 116.730 2.731 C 117.611 3.349 117.111 4.094 114.962 5.363 C 113.313 6.337 112.234 7.569 112.562 8.101 C 112.891 8.632 114.698 7.716 116.579 6.065 C 118.552 4.333 120.634 3.306 121.499 3.638 C 123.156 4.274 123.255 4.708 123.058 10.500 C 122.955 13.512 123.174 14.130 123.945 13.000 C 124.509 12.175 125.026 11.838 125.096 12.250 C 125.252 13.176 125.260 9.984 125.111 6.098 C 125.024 3.811 124.357 2.972 121.966 2.138 C 119.819 1.389 119.124 1.392 119.591 2.147 "/></g>
<g fill="#040204FE" stroke="#040204FE">
<path d="M 173.000 87.184 C 173.000 88.255 172.540 89.992 171.977 91.043 C 171.162 92.565 171.252 92.841 172.416 92.394 C 173.220 92.085 174.693 92.292 175.689 92.853 C 177.214 93.711 177.671 93.371 178.584 90.700 C 179.629 87.646 179.545 87.486 176.334 86.382 C 173.304 85.340 173.000 85.413 173.000 87.184 "/></g>
<g fill="#444444FE" stroke="#444444FE">
<path d="M 78.541 160.754 C 78.260 161.487 78.654 163.530 79.418 165.293 L 80.807 168.500 81.534 165.224 C 82.139 162.494 82.614 162.046 84.380 162.539 C 85.914 162.967 86.119 162.867 85.122 162.177 C 84.364 161.653 84.059 160.714 84.444 160.090 C 84.917 159.325 84.155 159.033 82.098 159.189 C 80.423 159.317 78.822 160.021 78.541 160.754 "/></g>
<g fill="#040204FE" stroke="#040204FE">
<path d="M 85.711 33.649 C 86.474 33.959 86.705 35.224 86.336 37.070 C 85.844 39.530 86.072 40.000 87.753 40.000 C 88.854 40.000 90.322 39.317 91.016 38.481 C 92.047 37.238 91.950 36.603 90.483 34.981 C 89.497 33.892 87.747 33.036 86.595 33.079 C 85.443 33.122 85.045 33.379 85.711 33.649 "/></g>
<g fill="#040204FE" stroke="#040204FE">
<path d="M 110.752 10.994 C 107.558 15.593 103.887 18.278 101.858 17.499 C 101.075 17.199 99.674 15.726 98.744 14.226 C 97.814 12.727 97.041 12.078 97.027 12.785 C 96.982 14.953 100.135 19.000 101.865 18.996 C 105.073 18.989 110.058 14.976 111.774 11.019 L 113.500 7.037 110.752 10.994 "/></g>
<g fill="#040204FE" stroke="#040204FE">
<path d="M 88.730 14.603 C 88.329 15.005 88.000 16.428 88.000 17.765 C 88.000 20.683 83.575 25.055 76.534 29.094 C 73.765 30.682 71.950 31.981 72.500 31.981 C 74.093 31.981 83.245 26.461 86.162 23.741 C 87.915 22.107 88.933 19.996 89.143 17.565 C 89.318 15.534 89.132 14.201 88.730 14.603 "/></g>
<g fill="#444444FE" stroke="#444444FE">
<path d="M 116.500 88.522 C 113.750 89.875 109.475 91.061 107.000 91.159 L 102.500 91.336 106.455 91.741 C 110.724 92.177 121.000 89.427 121.000 87.848 C 121.000 87.317 121.419 87.141 121.931 87.457 C 122.443 87.774 123.144 87.575 123.490 87.016 C 124.532 85.330 121.787 85.921 116.500 88.522 "/></g>
<g fill="#626060FE" stroke="#626060FE">
<path d="M 106.000 164.309 C 106.000 165.029 106.708 166.491 107.574 167.559 C 108.440 168.626 108.897 168.992 108.590 168.372 C 108.262 167.707 109.308 166.988 111.139 166.622 C 113.763 166.097 114.052 165.768 113.000 164.500 C 111.454 162.637 106.000 162.488 106.000 164.309 "/></g>
<g fill="#040204FE" stroke="#040204FE">
<path d="M 27.783 104.354 C 27.386 106.433 27.748 106.883 30.100 107.228 C 32.484 107.578 32.926 107.265 33.152 105.069 C 33.369 102.968 32.947 102.444 30.836 102.195 C 28.772 101.951 28.160 102.385 27.783 104.354 "/></g>
<g fill="#040204FE" stroke="#040204FE">
<path d="M 73.871 103.815 C 72.974 104.742 71.478 107.006 70.545 108.846 C 68.584 112.716 66.893 122.000 68.149 122.000 C 68.617 122.000 69.030 121.213 69.067 120.250 C 69.309 113.993 71.074 108.685 74.700 103.315 C 75.140 102.663 74.767 102.888 73.871 103.815 "/></g>
<g fill="#444444FE" stroke="#444444FE">
<path d="M 45.730 154.298 C 44.923 154.882 45.160 154.973 46.420 154.560 C 47.962 154.056 47.824 154.449 45.718 156.555 C 44.176 158.096 42.600 158.871 41.893 158.434 C 41.131 157.963 40.952 158.114 41.405 158.845 C 41.797 159.480 41.641 160.000 41.059 160.000 C 40.477 160.000 40.000 160.453 40.000 161.008 C 40.000 161.562 42.807 160.099 46.238 157.758 C 51.865 153.917 52.206 153.495 49.718 153.453 C 48.201 153.428 46.407 153.807 45.730 154.298 "/></g>
<g fill="#6082C0FE" stroke="#6082C0FE">
<path d="M 141.173 183.500 C 141.441 187.472 142.418 187.956 144.042 184.922 C 145.388 182.406 144.634 180.000 142.500 180.000 C 141.336 180.000 140.997 180.893 141.173 183.500 "/></g>
<g fill="#040204FE" stroke="#040204FE">
<path d="M 117.249 75.551 C 111.174 78.001 109.847 79.000 112.667 79.000 C 113.767 79.000 115.004 78.663 115.417 78.250 C 115.829 77.838 116.467 77.468 116.833 77.429 C 117.200 77.389 118.749 76.749 120.276 76.006 C 125.062 73.677 122.754 73.330 117.249 75.551 "/></g>
<g fill="#626060FE" stroke="#626060FE">
<path d="M 112.716 170.978 C 112.112 173.286 113.843 174.871 114.973 173.044 C 115.532 172.138 115.863 172.202 116.283 173.294 C 116.591 174.098 116.316 175.287 115.672 175.935 C 114.773 176.839 115.064 176.905 116.921 176.221 C 118.495 175.641 118.932 175.076 118.171 174.606 C 117.527 174.208 117.000 172.934 117.000 171.774 C 117.000 170.615 116.704 169.963 116.342 170.325 C 115.980 170.687 115.135 170.527 114.464 169.970 C 113.585 169.241 113.097 169.522 112.716 170.978 "/></g>
<g fill="#444444FE" stroke="#444444FE">
<path d="M 81.000 169.566 C 81.000 172.139 83.430 173.999 86.785 173.994 L 90.500 173.988 87.578 172.464 C 85.238 171.244 84.493 171.195 83.843 172.220 C 83.287 173.096 83.026 172.790 83.015 171.250 C 83.007 170.013 82.550 169.000 82.000 169.000 C 81.450 169.000 81.000 169.255 81.000 169.566 "/></g>
<g fill="#444444FE" stroke="#444444FE">
<path d="M 125.433 184.745 C 125.575 185.710 125.985 186.388 126.345 186.250 C 126.705 186.113 127.113 186.039 127.250 186.087 C 129.123 186.737 134.000 186.618 134.000 185.922 C 134.000 185.075 133.264 184.872 128.999 184.542 C 128.173 184.478 126.975 184.103 126.337 183.708 C 125.599 183.252 125.270 183.631 125.433 184.745 "/></g>
<g fill="#444444FE" stroke="#444444FE">
<path d="M 74.000 151.952 C 74.000 152.982 76.298 155.001 77.450 154.985 C 78.028 154.976 77.825 154.513 77.000 153.954 C 75.888 153.202 76.215 153.105 78.261 153.581 C 80.486 154.098 80.908 153.923 80.431 152.680 C 79.862 151.197 74.000 150.533 74.000 151.952 "/></g>
<g fill="#444444FE" stroke="#444444FE">
<path d="M 92.229 8.581 C 91.530 9.340 90.967 10.195 90.979 10.480 C 91.064 12.570 90.863 12.970 89.840 12.750 C 88.963 12.561 88.962 12.697 89.835 13.306 C 90.571 13.820 91.415 13.184 92.156 11.556 C 93.589 8.412 94.379 8.346 95.780 11.250 C 96.830 13.427 96.867 13.406 96.932 10.583 C 96.970 8.979 96.704 7.963 96.342 8.325 C 95.980 8.687 95.193 8.582 94.592 8.092 C 93.923 7.545 93.008 7.735 92.229 8.581 "/></g>
<g fill="#626060FE" stroke="#626060FE">
<path d="M 97.118 119.642 C 98.676 121.520 101.844 121.893 103.125 120.349 C 104.091 119.185 104.483 119.156 105.146 120.203 C 105.725 121.115 105.974 121.147 105.985 120.309 C 106.011 118.289 104.242 117.901 102.581 119.562 C 101.244 120.898 101.000 120.916 101.000 119.677 C 101.000 118.755 100.106 118.265 98.586 118.356 C 96.898 118.457 96.456 118.844 97.118 119.642 "/></g>
<g fill="#040204FE" stroke="#040204FE">
<path d="M 100.572 79.116 C 101.256 80.223 110.000 80.293 110.000 79.191 C 110.000 78.746 107.756 78.348 105.013 78.307 C 102.269 78.265 100.271 78.629 100.572 79.116 "/></g>
<g fill="#AA524EFE" stroke="#AA524EFE">
<path d="M 139.553 68.915 C 139.231 69.436 139.410 70.135 139.951 70.470 C 140.492 70.804 140.668 72.410 140.342 74.039 C 139.967 75.917 140.162 77.000 140.875 77.000 C 142.233 77.000 142.408 69.370 141.069 68.543 C 140.557 68.226 139.875 68.394 139.553 68.915 "/></g>
<g fill="#444444FE" stroke="#444444FE">
<path d="M 53.367 149.750 C 53.789 150.452 53.628 151.000 53.000 151.000 C 50.464 151.000 53.092 152.582 55.996 152.803 C 58.335 152.981 58.937 152.716 58.338 151.771 C 57.894 151.072 57.517 150.050 57.500 149.500 C 57.483 148.950 57.099 149.084 56.646 149.799 C 55.970 150.863 55.533 150.863 54.219 149.799 C 53.017 148.825 52.804 148.813 53.367 149.750 "/></g>
<g fill="#444444FE" stroke="#444444FE">
<path d="M 100.869 129.269 C 101.491 129.891 102.000 130.053 102.000 129.629 C 102.000 129.204 102.707 129.564 103.571 130.429 C 104.436 131.293 106.573 131.964 108.321 131.921 C 110.070 131.878 110.825 131.617 110.000 131.342 C 109.175 131.067 107.825 130.579 107.000 130.257 C 106.175 129.936 105.163 129.578 104.750 129.461 C 104.338 129.345 103.888 129.159 103.750 129.048 C 103.613 128.938 102.654 128.688 101.619 128.493 C 100.221 128.229 100.028 128.428 100.869 129.269 "/></g>
<g fill="#626060FE" stroke="#626060FE">
<path d="M 101.256 144.084 C 102.772 144.682 103.758 145.582 103.447 146.085 C 103.136 146.588 103.557 147.000 104.382 147.000 C 105.821 147.000 107.577 145.237 106.850 144.523 C 106.658 144.333 104.700 143.913 102.500 143.588 C 98.873 143.052 98.757 143.098 101.256 144.084 "/></g>
<g fill="#444444FE" stroke="#444444FE">
<path d="M 126.000 188.430 C 126.000 189.255 126.906 190.415 128.014 191.008 C 129.542 191.825 129.965 191.785 129.764 190.840 C 129.619 190.154 130.175 189.528 131.000 189.449 C 132.382 189.316 132.158 189.152 130.250 188.901 C 129.838 188.847 128.713 188.381 127.750 187.866 C 126.445 187.168 126.000 187.311 126.000 188.430 "/></g>
<g fill="#B6B6B8FE" stroke="#B6B6B8FE">
<path d="M 74.000 149.525 C 74.000 150.870 75.081 151.141 81.250 151.340 C 82.593 151.384 81.232 150.692 76.750 149.054 C 74.539 148.246 74.000 148.338 74.000 149.525 "/></g>
<g fill="#86AAE0FE" stroke="#86AAE0FE">
<path d="M 137.753 181.240 C 137.526 181.922 138.306 183.239 139.486 184.168 C 141.587 185.820 141.623 185.794 141.203 182.928 C 140.773 179.999 138.532 178.903 137.753 181.240 "/></g>
<g fill="#444444FE" stroke="#444444FE">
<path d="M 133.835 96.785 C 134.864 97.508 134.635 97.890 132.835 98.453 C 130.605 99.151 130.643 99.218 133.665 99.948 C 136.568 100.649 136.766 100.543 136.069 98.658 C 135.651 97.528 134.677 96.433 133.904 96.225 C 132.757 95.917 132.745 96.020 133.835 96.785 "/></g>
<g fill="#444444FE" stroke="#444444FE">
<path d="M 63.500 56.273 C 61.773 57.284 62.046 57.400 65.500 57.125 C 70.595 56.719 72.148 55.795 68.393 55.403 C 66.802 55.237 64.600 55.629 63.500 56.273 "/></g>
<g fill="#444444FE" stroke="#444444FE">
<path d="M 84.594 38.000 C 84.140 39.375 83.702 39.825 83.619 39.000 C 83.521 38.016 83.226 37.882 82.762 38.611 C 81.773 40.163 82.889 41.003 85.917 40.985 C 87.384 40.976 88.010 40.652 87.366 40.235 C 86.742 39.831 86.049 38.600 85.825 37.500 C 85.460 35.699 85.337 35.749 84.594 38.000 "/></g>
<g fill="#444444FE" stroke="#444444FE">
<path d="M 81.344 25.500 C 80.897 26.050 80.522 26.950 80.511 27.500 C 80.499 28.050 79.489 28.500 78.265 28.500 C 76.385 28.500 75.595 29.145 76.118 30.250 C 76.184 30.388 76.165 30.107 76.078 29.627 C 75.990 29.147 76.648 29.035 77.540 29.377 C 78.433 29.719 80.126 29.325 81.304 28.500 C 82.481 27.675 82.866 27.000 82.157 27.000 C 81.449 27.000 81.159 26.438 81.513 25.750 C 81.889 25.021 81.818 24.917 81.344 25.500 "/></g>
<g fill="#444444FE" stroke="#444444FE">
<path d="M 42.738 171.405 C 41.913 172.230 40.960 172.626 40.619 172.286 C 40.279 171.945 40.000 172.144 40.000 172.726 C 40.000 174.741 42.648 174.793 43.891 172.803 C 45.458 170.294 44.731 169.412 42.738 171.405 "/></g>
<g fill="#444444FE" stroke="#444444FE">
<path d="M 90.239 161.572 C 91.377 162.710 97.000 163.115 97.000 162.060 C 97.000 161.477 95.350 161.000 93.333 161.000 C 91.317 161.000 89.924 161.258 90.239 161.572 "/></g>
<g fill="#444444FE" stroke="#444444FE">
<path d="M 134.094 104.694 C 133.108 106.857 132.680 107.107 131.947 105.948 C 131.182 104.739 131.028 104.779 131.015 106.191 C 130.988 109.256 132.886 109.120 134.531 105.940 C 135.420 104.221 135.962 102.629 135.736 102.403 C 135.510 102.177 134.771 103.207 134.094 104.694 "/></g>
<g fill="#444444FE" stroke="#444444FE">
<path d="M 145.750 81.977 C 146.438 82.759 147.000 83.787 147.000 84.259 C 147.000 84.731 146.438 84.789 145.750 84.387 C 145.063 83.985 145.370 84.648 146.434 85.860 C 148.257 87.937 148.384 87.955 148.657 86.163 C 148.817 85.118 147.947 83.428 146.724 82.408 C 145.501 81.388 145.063 81.194 145.750 81.977 "/></g>
<g fill="#626060FE" stroke="#626060FE">
<path d="M 74.238 102.392 C 73.219 103.475 73.242 103.956 74.355 104.880 C 75.413 105.757 76.036 105.661 77.028 104.467 C 77.739 103.610 78.987 103.165 79.802 103.477 C 81.032 103.950 81.066 103.784 80.001 102.501 C 78.860 101.126 78.562 101.180 77.291 102.995 C 75.735 105.216 73.481 104.739 74.731 102.454 C 75.372 101.282 75.290 101.272 74.238 102.392 "/></g>
<g fill="#444444FE" stroke="#444444FE">
<path d="M 137.000 183.878 C 137.000 185.156 139.940 187.393 140.667 186.667 C 141.393 185.940 139.156 183.000 137.878 183.000 C 137.395 183.000 137.000 183.395 137.000 183.878 "/></g>
<g fill="#444444FE" stroke="#444444FE">
<path d="M 83.000 34.439 C 80.648 37.015 80.275 38.868 82.571 36.571 C 83.436 35.707 84.898 34.993 85.821 34.985 C 87.124 34.973 87.201 34.780 86.165 34.123 C 85.430 33.657 84.868 33.045 84.915 32.763 C 84.962 32.481 84.100 33.235 83.000 34.439 "/></g>
<g fill="#B6B6B8FE" stroke="#B6B6B8FE">
<path d="M 90.723 187.300 C 88.941 190.020 89.358 190.693 91.848 189.115 C 92.590 188.645 93.038 187.437 92.844 186.430 C 92.542 184.861 92.239 184.986 90.723 187.300 "/></g>
</svg>
